<svg width="163" height="36" viewBox="0 0 163 36" fill="none" xmlns="http://www.w3.org/2000/svg">
<path d="M5.90977 5.84947H9.05127V9.15705H5.90977V20.324H1.99066V9.15705H0V5.84947H1.99066V4.59487C1.99066 3.74464 2.17728 2.98774 2.54016 2.31378C2.91341 1.63982 3.43181 1.11102 4.085 0.727385C4.74855 0.354116 5.49505 0.16748 6.32449 0.16748C6.89473 0.16748 7.4857 0.281535 8.08705 0.520013C8.69876 0.748122 9.21716 1.04881 9.66298 1.43245L8.67802 3.92091C8.54324 3.76538 8.34625 3.65133 8.08705 3.56838C7.83822 3.48543 7.56865 3.44395 7.27834 3.44395C6.88436 3.44395 6.56295 3.59948 6.29338 3.91054C6.02381 4.2216 5.90977 4.60524 5.90977 5.07182V5.84947Z" fill="black"/>
<path d="M17.4347 9.11976C16.6571 9.11976 15.9728 9.32713 15.3715 9.75224C14.7701 10.167 14.3347 10.7476 14.0755 11.4734H20.5451C20.3274 10.7269 19.9438 10.1462 19.415 9.74187C18.8655 9.32713 18.2123 9.11976 17.4347 9.11976ZM17.4658 17.0414C18.0361 17.0414 18.6374 16.9273 19.2595 16.6888C19.8919 16.44 20.4 16.1289 20.7939 15.7557L23.4067 18.4204C22.7846 19.0736 21.9241 19.6128 20.8147 20.0379C19.7157 20.4526 18.6063 20.6704 17.5073 20.6704C16.0972 20.6704 14.8012 20.3386 13.6089 19.6854C12.4373 19.0321 11.5042 18.1197 10.8303 16.9688C10.1667 15.8386 9.83496 14.5322 9.83496 13.0598C9.83496 11.6393 10.1564 10.3536 10.8096 9.19234C11.4524 8.03106 12.3544 7.12899 13.5052 6.47577C14.5939 5.84328 15.8588 5.53223 17.2792 5.53223C18.7722 5.53223 20.0682 5.89513 21.1465 6.61056C22.2351 7.32599 23.0645 8.35248 23.6348 9.7004C24.1947 11.0691 24.485 12.6451 24.485 14.4285H14.0236C14.2621 15.2372 14.6872 15.8801 15.2989 16.357C15.9106 16.8029 16.6364 17.0414 17.4658 17.0414Z" fill="black"/>
<path d="M33.0026 9.11976C32.225 9.11976 31.5407 9.32713 30.9393 9.75224C30.338 10.167 29.9025 10.7476 29.6433 11.4734H36.113C35.8953 10.7269 35.5116 10.1462 34.9829 9.74187C34.4334 9.32713 33.7802 9.11976 33.0026 9.11976ZM33.0337 17.0414C33.6039 17.0414 34.2053 16.9273 34.8274 16.6888C35.4598 16.44 35.9678 16.1289 36.3618 15.7557L38.9746 18.4204C38.3525 19.0736 37.4919 19.6128 36.3826 20.0379C35.2835 20.4526 34.1742 20.6704 33.0752 20.6704C31.6651 20.6704 30.3691 20.3386 29.1768 19.6854C28.0052 19.0321 27.0721 18.1197 26.3982 16.9688C25.7346 15.8386 25.4028 14.5322 25.4028 13.0598C25.4028 11.6393 25.7242 10.3536 26.3774 9.19234C27.0202 8.03106 27.9223 7.12899 29.0731 6.47577C30.1617 5.84328 31.4266 5.53223 32.8471 5.53223C34.3401 5.53223 35.6361 5.89513 36.7143 6.61056C37.803 7.32599 38.6324 8.35248 39.2027 9.7004C39.7625 11.0691 40.0528 12.6451 40.0528 14.4285H29.5811C29.8196 15.2372 30.2447 15.8801 30.8564 16.357C31.4785 16.8029 32.2042 17.0414 33.0337 17.0414Z" fill="black"/>
<path d="M48.8551 17.2247C49.5705 17.2247 50.2029 17.0484 50.7732 16.7063C51.333 16.3537 51.7789 15.8561 52.1003 15.2339C52.4113 14.6118 52.5668 13.8964 52.5668 13.0876C52.5668 12.2996 52.4113 11.5946 52.0899 10.9725C51.7789 10.34 51.3434 9.85264 50.7732 9.50011C50.2133 9.15795 49.5705 8.98168 48.8551 8.98168C48.1189 8.98168 47.4554 9.15795 46.8644 9.50011C46.2838 9.84227 45.8276 10.3296 45.4958 10.9517C45.1641 11.5842 45.0085 12.2996 45.0085 13.098C45.0085 13.886 45.1744 14.6015 45.4958 15.2443C45.8276 15.8768 46.2838 16.3641 46.8644 16.7063C47.445 17.0484 48.1086 17.2247 48.8551 17.2247ZM56.6518 0.749023V20.3249H52.5668V18.2512C51.9966 19.0288 51.2916 19.6199 50.4517 20.045C49.6119 20.4701 48.6892 20.6775 47.6939 20.6775C46.429 20.6775 45.2885 20.356 44.262 19.7235C43.246 19.0807 42.458 18.1683 41.8981 17.007C41.3279 15.8872 41.0376 14.5807 41.0376 13.098C41.0376 11.6464 41.3175 10.3503 41.8878 9.18905C42.458 8.02777 43.2563 7.1257 44.2828 6.48285C45.2885 5.85037 46.429 5.53931 47.7042 5.53931C48.7099 5.53931 49.6223 5.74668 50.4621 6.17179C51.3019 6.58654 52.0069 7.17755 52.5772 7.94482V0.769759H56.6518V0.749023Z" fill="black"/>
<path d="M63.25 7.65527H59.165V20.3153H63.25V7.65527Z" fill="black"/>
<path d="M74.1526 5.50977C75.1686 5.50977 76.1017 5.74824 76.9312 6.2252C77.7606 6.70215 78.4034 7.35537 78.8596 8.19523C79.3158 9.08693 79.5439 10.0616 79.5439 11.1088V20.3161H75.5834V11.9798C75.5834 11.3888 75.4693 10.86 75.2412 10.4037C75.0131 9.94752 74.6917 9.59499 74.2873 9.33578C73.8726 9.07656 73.3853 8.95214 72.8358 8.95214C72.276 8.95214 71.7679 9.07656 71.3014 9.32541C70.8348 9.57425 70.4719 9.90605 70.2127 10.3415C69.9535 10.7666 69.8187 11.2436 69.8187 11.7517L69.7876 11.6687V20.3161H65.7026V5.84156H69.7876V7.65606C70.2127 6.98211 70.8141 6.45331 71.5813 6.08004C72.3589 5.70677 73.2091 5.50977 74.1526 5.50977Z" fill="black"/>
<path d="M88.9191 15.8058C89.5931 15.8058 90.1944 15.6606 90.7232 15.3703C91.2623 15.08 91.677 14.6652 91.9777 14.1364C92.268 13.6076 92.4132 13.0166 92.4132 12.3634C92.4132 11.6998 92.268 11.1088 91.9777 10.6007C91.6874 10.0823 91.2727 9.67794 90.7335 9.38762C90.2048 9.10767 89.6034 8.96251 88.9191 8.96251C88.2452 8.96251 87.6439 9.10767 87.1151 9.39799C86.5863 9.67794 86.1716 10.0823 85.8709 10.6007C85.5703 11.1192 85.4148 11.7102 85.4148 12.3634C85.4148 13.0166 85.5703 13.6076 85.8709 14.1364C86.1716 14.6549 86.5863 15.0696 87.1151 15.3703C87.6542 15.6606 88.2556 15.8058 88.9191 15.8058ZM96.5293 5.84156V18.7712C96.5293 19.9947 96.1975 21.0834 95.5443 22.0373C94.9015 23.0016 93.9787 23.7689 92.7864 24.3184C91.5837 24.8576 90.2359 25.1271 88.7533 25.1271C87.5298 25.1271 86.3479 24.9509 85.197 24.5983C84.0565 24.2562 83.1131 23.7896 82.3666 23.2089L83.787 20.3161C84.2535 20.7309 84.8756 21.0523 85.674 21.3011C86.4619 21.5603 87.281 21.6848 88.1104 21.6848C88.971 21.6848 89.7175 21.5603 90.3707 21.3011C91.0239 21.0523 91.5319 20.6997 91.8844 20.2332C92.2369 19.7666 92.4132 19.2274 92.4132 18.6053V17.0085C91.8429 17.724 91.1379 18.2839 90.2981 18.6779C89.4686 19.0615 88.577 19.2481 87.6335 19.2481C86.4412 19.2481 85.3525 18.9578 84.3676 18.3772C83.3826 17.7862 82.6154 16.9671 82.0555 15.9198C81.4956 14.9037 81.2261 13.7113 81.2261 12.3634C81.2261 11.057 81.506 9.88531 82.0555 8.84845C82.6154 7.80122 83.3826 6.97174 84.378 6.37036C85.3318 5.80009 86.4204 5.50977 87.6335 5.50977C88.577 5.50977 89.479 5.71714 90.3396 6.14225C91.2001 6.55699 91.8948 7.1169 92.4132 7.81159V5.84156H96.5293Z" fill="black"/>
<path d="M106.813 5.84473H102.728V20.3193H106.813V5.84473Z" fill="black"/>
<path d="M117.717 5.50977C118.733 5.50977 119.666 5.74824 120.496 6.2252C121.325 6.70215 121.968 7.35537 122.424 8.19523C122.88 9.08693 123.108 10.0616 123.108 11.1088V20.3161H119.158V11.9798C119.158 11.3888 119.044 10.86 118.816 10.4037C118.588 9.94752 118.266 9.59499 117.862 9.33578C117.447 9.07656 116.96 8.95214 116.411 8.95214C115.851 8.95214 115.343 9.07656 114.876 9.32541C114.41 9.57425 114.047 9.90605 113.787 10.3415C113.528 10.7666 113.393 11.2436 113.393 11.7517L113.362 11.6687V20.3161H109.277V5.84156H113.362V7.65606C113.787 6.98211 114.389 6.45331 115.156 6.08004C115.923 5.70677 116.784 5.50977 117.717 5.50977Z" fill="black"/>
<path d="M132.617 17.2247C133.333 17.2247 133.965 17.0484 134.535 16.7063C135.095 16.3537 135.541 15.8561 135.863 15.2339C136.174 14.6118 136.329 13.8964 136.329 13.0876C136.329 12.2996 136.174 11.5946 135.852 10.9725C135.541 10.34 135.106 9.85264 134.535 9.50011C133.976 9.15795 133.333 8.98168 132.617 8.98168C131.881 8.98168 131.218 9.15795 130.627 9.50011C130.046 9.84227 129.59 10.3296 129.258 10.9517C128.926 11.5842 128.771 12.2996 128.771 13.098C128.771 13.886 128.937 14.6015 129.258 15.2443C129.59 15.8768 130.046 16.3641 130.627 16.7063C131.197 17.0484 131.871 17.2247 132.617 17.2247ZM140.404 0.749023V20.3249H136.319V18.2512C135.749 19.0288 135.044 19.6199 134.204 20.045C133.364 20.4701 132.441 20.6775 131.446 20.6775C130.181 20.6775 129.04 20.356 128.014 19.7235C126.998 19.0807 126.21 18.1683 125.65 17.007C125.08 15.8872 124.79 14.5807 124.79 13.098C124.79 11.6464 125.069 10.3503 125.64 9.18905C126.21 8.02777 127.008 7.1257 128.035 6.48285C129.04 5.85037 130.181 5.53931 131.456 5.53931C132.462 5.53931 133.374 5.74668 134.214 6.17179C135.054 6.58654 135.759 7.17755 136.329 7.94482V0.769759H140.404V0.749023Z" fill="black"/>
<path d="M147.001 5.84473H142.917V20.3193H147.001V5.84473Z" fill="black"/>
<path d="M155.082 17.8276C155.942 17.8276 156.679 17.641 157.301 17.2677C157.923 16.8841 158.286 16.376 158.41 15.7539V14.406C157.467 14.0535 156.44 13.8772 155.31 13.8772C154.823 13.8772 154.367 13.9602 153.952 14.1364C153.547 14.3127 153.236 14.5512 152.998 14.8726C152.759 15.194 152.645 15.5362 152.645 15.9095C152.645 16.4797 152.874 16.9463 153.33 17.2989C153.776 17.6514 154.367 17.8276 155.082 17.8276ZM156.005 5.50977C157.259 5.50977 158.379 5.75861 159.343 6.26667C160.307 6.754 161.054 7.46943 161.583 8.4026C162.101 9.28393 162.36 10.3726 162.36 11.6687V20.3161H158.41V18.8645C157.923 19.4244 157.29 19.8599 156.523 20.1813C155.756 20.5027 154.968 20.6583 154.159 20.6583C153.122 20.6583 152.189 20.4716 151.37 20.088C150.551 19.7044 149.898 19.1548 149.431 18.4498C148.944 17.7447 148.706 16.9463 148.706 16.0443C148.706 15.1215 148.965 14.3023 149.483 13.5662C150.002 12.83 150.727 12.2493 151.671 11.8346C152.594 11.4199 153.61 11.2229 154.719 11.2229C155.88 11.2229 157.114 11.4717 158.41 11.959V11.6687C158.41 10.777 158.12 10.0719 157.539 9.56388C156.969 9.04545 156.15 8.78624 155.092 8.78624C153.91 8.78624 152.656 9.1284 151.329 9.8231L149.96 7.10653C152.054 6.03856 154.066 5.50977 156.005 5.50977Z" fill="black"/>
<path d="M61.2438 5.64051C61.2231 5.64051 61.192 5.63014 61.1609 5.63014H61.1713C61.1505 5.63014 58.9214 4.73844 58.2475 2.69583C58.1334 2.35367 57.9572 1.21312 58.6104 0.508061C58.8592 0.207372 59.2324 0.0103686 59.6575 0C60.3211 0.0207372 60.8913 0.3629 61.2438 0.860593L61.2542 0.870961C61.5963 0.352532 62.1769 0.0103686 62.8509 0C63.276 0.0103686 63.6492 0.197003 63.898 0.497692V0.508061C64.5512 1.21312 64.375 2.35367 64.2609 2.69583C63.587 4.72808 61.3579 5.60941 61.3371 5.63014C61.2957 5.63014 61.2749 5.64051 61.2438 5.64051Z" fill="#E23744"/>
<path d="M27.4927 35.926L29.6359 30.5866H30.9326L33.0606 35.926H31.4283L30.5741 33.5919C30.5182 33.4343 30.4698 33.2995 30.4292 33.1877C30.3885 33.0758 30.3529 32.9716 30.3224 32.8749C30.2919 32.7732 30.2614 32.6664 30.2309 32.5546C30.2003 32.4376 30.1698 32.3003 30.1393 32.1427H30.3987C30.3681 32.3003 30.3376 32.4376 30.3071 32.5546C30.2766 32.6664 30.2436 32.7732 30.208 32.8749C30.1775 32.9716 30.1393 33.0758 30.0936 33.1877C30.0529 33.2995 30.0046 33.4343 29.9486 33.5919L29.0944 35.926H27.4927ZM28.5605 35.1327L29.041 34.0115H31.5199L31.9546 35.1327H28.5605Z" fill="black"/>
<path d="M38.3999 35.926V34.8658L41.1381 31.2502L41.8398 32.0664H38.5982V30.5866H42.7475V31.6393L40.0245 35.2624L39.3152 34.5378H42.8314V35.926H38.3999Z" fill="black"/>
<path d="M47.6235 36.0023C47.2014 36.0023 46.815 35.9336 46.4641 35.7963C46.1133 35.659 45.8082 35.4658 45.5489 35.2166C45.2896 34.9675 45.0887 34.6725 44.9463 34.3318C44.809 33.9911 44.7404 33.6199 44.7404 33.2182C44.7404 32.8114 44.809 32.4402 44.9463 32.1045C45.0887 31.7638 45.2896 31.4689 45.5489 31.2197C45.8082 30.9706 46.1133 30.7773 46.4641 30.64C46.815 30.5027 47.1989 30.4341 47.6159 30.4341C48.0379 30.4341 48.4218 30.5027 48.7676 30.64C49.1184 30.7773 49.4235 30.9706 49.6828 31.2197C49.9422 31.4689 50.1405 31.7638 50.2778 32.1045C50.4201 32.4402 50.4913 32.8088 50.4913 33.2106C50.4913 33.6174 50.4201 33.9911 50.2778 34.3318C50.1405 34.6725 49.9422 34.9675 49.6828 35.2166C49.4235 35.4658 49.1184 35.659 48.7676 35.7963C48.4218 35.9336 48.0404 36.0023 47.6235 36.0023ZM47.6159 34.4767C47.7887 34.4767 47.9464 34.4462 48.0888 34.3852C48.2362 34.3242 48.3633 34.2377 48.4701 34.1259C48.582 34.0089 48.6659 33.8742 48.7218 33.7216C48.7828 33.5691 48.8133 33.4012 48.8133 33.2182C48.8133 33.0351 48.7828 32.8673 48.7218 32.7148C48.6659 32.5622 48.582 32.43 48.4701 32.3181C48.3633 32.2012 48.2362 32.1122 48.0888 32.0511C47.9464 31.9901 47.7887 31.9596 47.6159 31.9596C47.443 31.9596 47.2828 31.9901 47.1353 32.0511C46.993 32.1122 46.8658 32.2012 46.754 32.3181C46.6472 32.43 46.5633 32.5622 46.5023 32.7148C46.4464 32.8673 46.4184 33.0351 46.4184 33.2182C46.4184 33.4012 46.4464 33.5691 46.5023 33.7216C46.5633 33.8742 46.6472 34.0089 46.754 34.1259C46.8658 34.2377 46.993 34.3242 47.1353 34.3852C47.2828 34.4462 47.443 34.4767 47.6159 34.4767Z" fill="black"/>
<path d="M52.5887 35.926V30.5866H54.0074L55.9523 33.7521L54.8006 33.7445L56.7684 30.5866H58.1413V35.926H56.5549V34.6522C56.5549 34.1945 56.565 33.7826 56.5854 33.4165C56.6108 33.0504 56.6515 32.6868 56.7074 32.3257L56.8905 32.8063L55.6015 34.8047H55.0981L53.8319 32.8063L54.0226 32.3257C54.0786 32.6664 54.1167 33.0173 54.137 33.3784C54.1625 33.7343 54.1752 34.1589 54.1752 34.6522V35.926H52.5887Z" fill="black"/>
<path d="M59.7789 35.926L61.9221 30.5866H63.2188L65.3468 35.926H63.7145L62.8603 33.5919C62.8044 33.4343 62.7561 33.2995 62.7154 33.1877C62.6747 33.0758 62.6391 32.9716 62.6086 32.8749C62.5781 32.7732 62.5476 32.6664 62.5171 32.5546C62.4866 32.4376 62.456 32.3003 62.4255 32.1427H62.6849C62.6544 32.3003 62.6238 32.4376 62.5933 32.5546C62.5628 32.6664 62.5298 32.7732 62.4942 32.8749C62.4637 32.9716 62.4255 33.0758 62.3798 33.1877C62.3391 33.2995 62.2908 33.4343 62.2349 33.5919L61.3806 35.926H59.7789ZM60.8467 35.1327L61.3272 34.0115H63.8061L64.2408 35.1327H60.8467Z" fill="black"/>
<path d="M67.8762 35.926V31.9901H66.2287V30.5866H71.2169V31.9901H69.5236V35.926H67.8762Z" fill="black"/>
<path d="M75.5842 36.0023C75.1622 36.0023 74.7757 35.9336 74.4249 35.7963C74.074 35.659 73.7689 35.4658 73.5096 35.2166C73.2503 34.9675 73.0494 34.6725 72.907 34.3318C72.7698 33.9911 72.7011 33.6199 72.7011 33.2182C72.7011 32.8114 72.7698 32.4402 72.907 32.1045C73.0494 31.7638 73.2503 31.4689 73.5096 31.2197C73.7689 30.9706 74.074 30.7773 74.4249 30.64C74.7757 30.5027 75.1596 30.4341 75.5766 30.4341C75.9986 30.4341 76.3825 30.5027 76.7283 30.64C77.0792 30.7773 77.3842 30.9706 77.6436 31.2197C77.9029 31.4689 78.1012 31.7638 78.2385 32.1045C78.3809 32.4402 78.4521 32.8088 78.4521 33.2106C78.4521 33.6174 78.3809 33.9911 78.2385 34.3318C78.1012 34.6725 77.9029 34.9675 77.6436 35.2166C77.3842 35.4658 77.0792 35.659 76.7283 35.7963C76.3825 35.9336 76.0012 36.0023 75.5842 36.0023ZM75.5766 34.4767C75.7495 34.4767 75.9071 34.4462 76.0495 34.3852C76.1969 34.3242 76.3241 34.2377 76.4308 34.1259C76.5427 34.0089 76.6266 33.8742 76.6825 33.7216C76.7435 33.5691 76.7741 33.4012 76.7741 33.2182C76.7741 33.0351 76.7435 32.8673 76.6825 32.7148C76.6266 32.5622 76.5427 32.43 76.4308 32.3181C76.3241 32.2012 76.1969 32.1122 76.0495 32.0511C75.9071 31.9901 75.7495 31.9596 75.5766 31.9596C75.4037 31.9596 75.2435 31.9901 75.0961 32.0511C74.9537 32.1122 74.8266 32.2012 74.7147 32.3181C74.6079 32.43 74.524 32.5622 74.463 32.7148C74.4071 32.8673 74.3791 33.0351 74.3791 33.2182C74.3791 33.4012 74.4071 33.5691 74.463 33.7216C74.524 33.8742 74.6079 34.0089 74.7147 34.1259C74.8266 34.2377 74.9537 34.3242 75.0961 34.3852C75.2435 34.4462 75.4037 34.4767 75.5766 34.4767Z" fill="black"/>
<path d="M86.9457 36.0023C86.4881 36.0023 86.0813 35.9336 85.7253 35.7963C85.3745 35.659 85.077 35.4658 84.833 35.2166C84.5889 34.9675 84.4033 34.6725 84.2762 34.3318C84.1541 33.9911 84.0931 33.6199 84.0931 33.2182C84.0931 32.8114 84.1618 32.4402 84.2991 32.1045C84.4414 31.7638 84.6448 31.4689 84.9092 31.2197C85.1736 30.9706 85.4864 30.7773 85.8474 30.64C86.2135 30.5027 86.6203 30.4341 87.0677 30.4341C87.3779 30.4341 87.6652 30.4722 87.9296 30.5485C88.1991 30.6248 88.4407 30.729 88.6542 30.8612C88.8729 30.9884 89.061 31.1333 89.2186 31.296L88.2423 32.3334C88.1406 32.2368 88.0313 32.1529 87.9144 32.0817C87.7974 32.0054 87.6678 31.9469 87.5254 31.9062C87.383 31.8605 87.2228 31.8376 87.0449 31.8376C86.8618 31.8376 86.694 31.8732 86.5415 31.9444C86.3889 32.0105 86.2567 32.1045 86.1448 32.2266C86.033 32.3486 85.944 32.4961 85.8779 32.669C85.8169 32.8368 85.7864 33.0199 85.7864 33.2182C85.7864 33.4165 85.8194 33.6021 85.8855 33.775C85.9516 33.9428 86.0431 34.0877 86.1601 34.2098C86.2771 34.3318 86.4169 34.4284 86.5796 34.4996C86.7423 34.5657 86.9203 34.5988 87.1135 34.5988C87.2457 34.5988 87.3652 34.5785 87.472 34.5378C87.5839 34.492 87.6779 34.4335 87.7542 34.3623C87.8356 34.2861 87.8991 34.1971 87.9449 34.0954C87.9906 33.9886 88.0135 33.8742 88.0135 33.7521V33.5309L88.2271 33.897H86.8694V32.7376H89.4932C89.4983 32.7936 89.5034 32.8851 89.5085 33.0122C89.5186 33.1394 89.5237 33.2665 89.5237 33.3936C89.5288 33.5157 89.5313 33.5996 89.5313 33.6453C89.5313 33.986 89.4678 34.3013 89.3407 34.5912C89.2135 34.881 89.033 35.1302 88.7991 35.3387C88.5703 35.5472 88.2983 35.7099 87.983 35.8268C87.6678 35.9438 87.322 36.0023 86.9457 36.0023Z" fill="black"/>
<path d="M91.516 35.926V34.5912H92.4541V31.9215H91.516V30.5866H95.0398V31.9215H94.1016V34.5912H95.0398V35.926H91.516Z" fill="black"/>
<path d="M98.8481 35.926L96.7201 30.5866H98.3676L99.2218 32.9207C99.2828 33.0783 99.3312 33.2131 99.3667 33.325C99.4074 33.4368 99.443 33.5436 99.4735 33.6453C99.504 33.742 99.532 33.8462 99.5574 33.9581C99.5879 34.0699 99.621 34.2072 99.6566 34.37H99.3896C99.4405 34.1564 99.4837 33.981 99.5193 33.8437C99.56 33.7064 99.6032 33.5716 99.649 33.4394C99.6998 33.3021 99.7634 33.1292 99.8396 32.9207L100.694 30.5866H102.288L100.145 35.926H98.8481Z" fill="black"/>
<path d="M104.004 35.926V30.5866H107.993V31.9215H105.583V34.5912H108.13V35.926H104.004ZM104.789 33.8513V32.6003H107.711V33.8513H104.789Z" fill="black"/>
<path d="M110.281 35.926V30.5866H112.737C113.123 30.5866 113.449 30.64 113.713 30.7468C113.983 30.8536 114.186 31.0036 114.323 31.1968C114.466 31.3901 114.537 31.6164 114.537 31.8757C114.537 32.1961 114.463 32.4605 114.316 32.669C114.173 32.8775 113.962 33.0173 113.683 33.0885L113.66 32.9436C113.894 32.9995 114.097 33.0911 114.27 33.2182C114.443 33.3402 114.577 33.4902 114.674 33.6682C114.771 33.8462 114.819 34.0496 114.819 34.2784C114.819 34.5581 114.768 34.8022 114.666 35.0107C114.565 35.2141 114.42 35.3844 114.232 35.5217C114.049 35.659 113.835 35.7607 113.591 35.8268C113.352 35.893 113.093 35.926 112.813 35.926H110.281ZM111.806 34.6293H112.767C112.864 34.6293 112.945 34.614 113.011 34.5835C113.077 34.5479 113.128 34.4971 113.164 34.431C113.199 34.3598 113.217 34.2759 113.217 34.1793C113.217 34.0928 113.197 34.0216 113.156 33.9657C113.121 33.9047 113.067 33.8589 112.996 33.8284C112.925 33.7928 112.836 33.775 112.729 33.775H111.806V34.6293ZM111.806 32.6766H112.455C112.572 32.6766 112.666 32.6614 112.737 32.6309C112.813 32.6003 112.866 32.5571 112.897 32.5012C112.933 32.4402 112.95 32.3664 112.95 32.28C112.95 32.163 112.91 32.0689 112.828 31.9978C112.752 31.9215 112.622 31.8833 112.439 31.8833H111.806V32.6766Z" fill="black"/>
<path d="M116.153 35.926L118.296 30.5866H119.592L121.72 35.926H120.088L119.234 33.5919C119.178 33.4343 119.13 33.2995 119.089 33.1877C119.048 33.0758 119.013 32.9716 118.982 32.8749C118.952 32.7732 118.921 32.6664 118.891 32.5546C118.86 32.4376 118.83 32.3003 118.799 32.1427H119.059C119.028 32.3003 118.998 32.4376 118.967 32.5546C118.937 32.6664 118.903 32.7732 118.868 32.8749C118.837 32.9716 118.799 33.0758 118.753 33.1877C118.713 33.2995 118.664 33.4343 118.609 33.5919L117.754 35.926H116.153ZM117.22 35.1327L117.701 34.0115H120.18L120.615 35.1327H117.22Z" fill="black"/>
<path d="M125.838 36.0023C125.411 36.0023 125.017 35.9336 124.656 35.7963C124.3 35.659 123.99 35.4683 123.726 35.2243C123.466 34.9751 123.265 34.6802 123.123 34.3395C122.981 33.9987 122.91 33.625 122.91 33.2182C122.91 32.8114 122.981 32.4376 123.123 32.0969C123.271 31.7562 123.477 31.4638 123.741 31.2197C124.005 30.9706 124.318 30.7773 124.679 30.64C125.045 30.5027 125.447 30.4341 125.884 30.4341C126.133 30.4341 126.377 30.4646 126.616 30.5256C126.86 30.5816 127.089 30.6705 127.303 30.7926C127.521 30.9095 127.72 31.0596 127.898 31.2426L126.914 32.3944C126.843 32.3079 126.756 32.2291 126.655 32.1579C126.558 32.0867 126.444 32.0308 126.311 31.9901C126.184 31.9444 126.037 31.9215 125.869 31.9215C125.696 31.9215 125.531 31.952 125.373 32.013C125.221 32.0689 125.086 32.1529 124.969 32.2647C124.857 32.3766 124.768 32.5139 124.702 32.6766C124.636 32.8393 124.603 33.0275 124.603 33.2411C124.603 33.4343 124.636 33.6097 124.702 33.7674C124.768 33.925 124.862 34.0598 124.984 34.1716C125.106 34.2835 125.254 34.37 125.427 34.431C125.599 34.492 125.793 34.5225 126.006 34.5225C126.159 34.5225 126.304 34.4996 126.441 34.4539C126.578 34.4081 126.703 34.3496 126.815 34.2784C126.927 34.2022 127.023 34.1182 127.105 34.0267L127.89 35.2624C127.758 35.4048 127.583 35.5319 127.364 35.6438C127.145 35.7557 126.904 35.8446 126.639 35.9108C126.375 35.9718 126.108 36.0023 125.838 36.0023Z" fill="black"/>
<path d="M130.919 34.4081L130.362 33.1877L132.902 30.5866H134.771L130.919 34.4081ZM129.775 35.926V30.5866H131.422V35.926H129.775ZM133.123 35.926L131.186 33.4012L132.254 32.4783L134.992 35.926H133.123Z" fill="black"/>
</svg>
