<svg width="24" height="24" viewBox="0 0 24 24" fill="none" xmlns="http://www.w3.org/2000/svg">
<g clip-path="url(#clip0_1998_28368)">
<path d="M0 12C0 5.376 5.376 0 12 0C18.624 0 24 5.376 24 12C24 18.624 18.624 24 12 24C5.376 24 0 18.624 0 12ZM12.24 6C10.56 6 10.344 6 9.672 6.024C9 6.072 8.544 6.168 8.16 6.312C7.752 6.48 7.392 6.696 7.056 7.032C6.696 7.392 6.48 7.728 6.336 8.16C6.168 8.544 6.072 9 6.048 9.672C6 10.344 6 10.536 6 12.24C6 13.944 6 14.16 6.048 14.832C6.072 15.48 6.168 15.936 6.336 16.344C6.48 16.752 6.696 17.088 7.056 17.448C7.392 17.784 7.752 18 8.16 18.168C8.544 18.312 9 18.432 9.672 18.456C10.344 18.48 10.56 18.504 12.24 18.504C13.944 18.504 14.16 18.48 14.832 18.456C15.504 18.432 15.936 18.312 16.344 18.168C16.752 18 17.112 17.784 17.448 17.448C17.808 17.088 18.024 16.752 18.168 16.344C18.336 15.936 18.432 15.48 18.456 14.832C18.504 14.16 18.504 13.944 18.504 12.24C18.504 10.536 18.504 10.344 18.456 9.672C18.432 9 18.336 8.544 18.168 8.16C18.024 7.728 17.808 7.392 17.448 7.032C17.112 6.696 16.752 6.48 16.344 6.312C15.936 6.168 15.48 6.072 14.832 6.024C14.16 6 13.944 6 12.24 6ZM11.688 7.128C11.856 7.128 12.048 7.128 12.24 7.128C13.92 7.128 14.112 7.128 14.784 7.152C15.384 7.176 15.72 7.296 15.936 7.368C16.224 7.488 16.44 7.632 16.656 7.848C16.872 8.064 17.016 8.256 17.112 8.568C17.208 8.784 17.304 9.12 17.328 9.72C17.376 10.368 17.376 10.584 17.376 12.24C17.376 13.92 17.376 14.112 17.328 14.76C17.304 15.384 17.208 15.72 17.112 15.936C17.016 16.224 16.872 16.416 16.656 16.656C16.44 16.872 16.224 16.992 15.936 17.112C15.72 17.208 15.384 17.304 14.784 17.328C14.112 17.352 13.92 17.376 12.24 17.376C10.584 17.376 10.392 17.352 9.72 17.328C9.12 17.304 8.784 17.208 8.568 17.112C8.28 16.992 8.064 16.872 7.848 16.656C7.632 16.44 7.488 16.224 7.368 15.936C7.296 15.696 7.2 15.384 7.152 14.76C7.128 14.112 7.128 13.92 7.128 12.24C7.128 10.584 7.128 10.368 7.152 9.72C7.2 9.096 7.296 8.784 7.368 8.568C7.488 8.256 7.632 8.064 7.848 7.848C8.064 7.632 8.28 7.488 8.568 7.368C8.784 7.296 9.12 7.176 9.72 7.152C10.296 7.128 10.536 7.128 11.688 7.128ZM15.576 8.16C15.168 8.16 14.832 8.496 14.832 8.904C14.832 9.312 15.168 9.648 15.576 9.648C16.008 9.648 16.344 9.312 16.344 8.904C16.344 8.496 16.008 8.16 15.576 8.16ZM12.24 9.024C10.488 9.024 9.048 10.464 9.048 12.24C9.048 14.016 10.488 15.456 12.24 15.456C13.992 15.456 15.456 14.016 15.456 12.24C15.456 10.464 14.016 9.024 12.24 9.024ZM12.24 10.152C13.392 10.152 14.328 11.088 14.328 12.24C14.328 13.392 13.392 14.328 12.24 14.328C11.112 14.328 10.176 13.392 10.176 12.24C10.176 11.088 11.112 10.152 12.24 10.152Z" fill="#1C1C1C"/>
</g>
<defs>
<clipPath id="clip0_1998_28368">
<rect width="24" height="24" fill="white"/>
</clipPath>
</defs>
</svg>
