<svg width="24" height="24" viewBox="0 0 24 24" fill="none" xmlns="http://www.w3.org/2000/svg">
<g clip-path="url(#clip0_1998_28367)">
<path d="M0 12C0 5.376 5.376 0 12 0C18.624 0 24 5.376 24 12C24 18.624 18.624 24 12 24C5.376 24 0 18.624 0 12ZM8.472 10.056H5.664V18.504H8.472V10.056ZM8.664 7.44C8.64 6.624 8.04 6 7.08 6C6.12 6 5.496 6.624 5.496 7.44C5.496 8.256 6.12 8.904 7.056 8.904H7.08C8.04 8.904 8.664 8.256 8.664 7.44ZM18.6 13.656C18.6 11.064 17.208 9.864 15.36 9.864C13.872 9.864 13.2 10.68 12.84 11.256V10.056H10.032C10.056 10.848 10.032 18.504 10.032 18.504H12.84V13.776C12.84 13.536 12.864 13.272 12.936 13.104C13.128 12.6 13.584 12.072 14.376 12.072C15.384 12.072 15.792 12.84 15.792 13.992V18.504H18.6V13.656Z" fill="#1C1C1C"/>
</g>
<defs>
<clipPath id="clip0_1998_28367">
<rect width="24" height="24" fill="white"/>
</clipPath>
</defs>
</svg>
