<svg width="24" height="24" viewBox="0 0 24 24" fill="none" xmlns="http://www.w3.org/2000/svg">
<g clip-path="url(#clip0_1998_28370)">
<path d="M0 12C0 5.376 5.376 0 12 0C18.624 0 24 5.376 24 12C24 18.624 18.624 24 12 24C5.376 24 0 18.624 0 12ZM18.24 8.904C18.096 8.352 17.664 7.92 17.136 7.752C16.152 7.488 12.24 7.488 12.24 7.488C12.24 7.488 8.352 7.488 7.368 7.752C6.84 7.92 6.408 8.352 6.264 8.904C6 9.888 6 11.976 6 11.976C6 11.976 6 14.064 6.264 15.072C6.408 15.624 6.84 16.056 7.368 16.2C8.352 16.488 12.24 16.488 12.24 16.488C12.24 16.488 16.152 16.488 17.136 16.2C17.664 16.056 18.096 15.624 18.24 15.072C18.504 14.064 18.504 11.976 18.504 11.976C18.504 11.976 18.504 9.888 18.24 8.904ZM11.088 14.136V10.224L14.208 12.192L11.088 14.136Z" fill="#1C1C1C"/>
</g>
<defs>
<clipPath id="clip0_1998_28370">
<rect width="24" height="24" fill="white"/>
</clipPath>
</defs>
</svg>
